<mxfile host="app.diagrams.net" agent="Mozilla/5.0 (Windows NT 10.0; Win64; x64) AppleWebKit/537.36 (KHTML, like Gecko) Chrome/128.0.0.0 Safari/537.36 Edg/128.0.0.0" version="24.7.7">
  <diagram name="PÃ¡gina-1" id="Gifiw9kGq9_ywdqmjWr6">
    <mxGraphModel dx="1120" dy="523" grid="1" gridSize="10" guides="1" tooltips="1" connect="1" arrows="1" fold="1" page="1" pageScale="1" pageWidth="1169" pageHeight="827" math="0" shadow="0">
      <root>
        <mxCell id="0" />
        <mxCell id="1" parent="0" />
        <mxCell id="Fblpxnx981H0n67Tq4fb-109" style="edgeStyle=none;rounded=0;orthogonalLoop=1;jettySize=auto;html=1;exitX=1;exitY=0.5;exitDx=0;exitDy=0;" edge="1" parent="1" source="Fblpxnx981H0n67Tq4fb-61" target="Fblpxnx981H0n67Tq4fb-110">
          <mxGeometry relative="1" as="geometry">
            <mxPoint x="400" y="441" as="targetPoint" />
          </mxGeometry>
        </mxCell>
        <mxCell id="Fblpxnx981H0n67Tq4fb-61" value="&lt;font style=&quot;font-size: 18px;&quot;&gt;employees&lt;/font&gt;" style="rounded=0;whiteSpace=wrap;html=1;" vertex="1" parent="1">
          <mxGeometry x="250" y="418" width="120" height="46" as="geometry" />
        </mxCell>
        <mxCell id="Fblpxnx981H0n67Tq4fb-72" style="rounded=0;orthogonalLoop=1;jettySize=auto;html=1;exitX=1;exitY=1;exitDx=0;exitDy=0;" edge="1" parent="1" source="Fblpxnx981H0n67Tq4fb-62" target="Fblpxnx981H0n67Tq4fb-61">
          <mxGeometry relative="1" as="geometry" />
        </mxCell>
        <mxCell id="Fblpxnx981H0n67Tq4fb-62" value="&lt;u&gt;&lt;font style=&quot;font-size: 14px;&quot;&gt;idemployees&lt;/font&gt;&lt;/u&gt;" style="ellipse;whiteSpace=wrap;html=1;" vertex="1" parent="1">
          <mxGeometry x="100" y="210" width="120" height="50" as="geometry" />
        </mxCell>
        <mxCell id="Fblpxnx981H0n67Tq4fb-76" style="edgeStyle=none;rounded=0;orthogonalLoop=1;jettySize=auto;html=1;exitX=1;exitY=0.5;exitDx=0;exitDy=0;entryX=0.25;entryY=0;entryDx=0;entryDy=0;" edge="1" parent="1" source="Fblpxnx981H0n67Tq4fb-63" target="Fblpxnx981H0n67Tq4fb-61">
          <mxGeometry relative="1" as="geometry" />
        </mxCell>
        <mxCell id="Fblpxnx981H0n67Tq4fb-63" value="&lt;font style=&quot;font-size: 14px;&quot;&gt;name_&lt;/font&gt;" style="ellipse;whiteSpace=wrap;html=1;" vertex="1" parent="1">
          <mxGeometry x="50" y="310" width="120" height="50" as="geometry" />
        </mxCell>
        <mxCell id="Fblpxnx981H0n67Tq4fb-77" style="edgeStyle=none;rounded=0;orthogonalLoop=1;jettySize=auto;html=1;exitX=1;exitY=0.5;exitDx=0;exitDy=0;" edge="1" parent="1" source="Fblpxnx981H0n67Tq4fb-64" target="Fblpxnx981H0n67Tq4fb-61">
          <mxGeometry relative="1" as="geometry" />
        </mxCell>
        <mxCell id="Fblpxnx981H0n67Tq4fb-64" value="&lt;font style=&quot;font-size: 14px;&quot;&gt;lastname&lt;/font&gt;" style="ellipse;whiteSpace=wrap;html=1;" vertex="1" parent="1">
          <mxGeometry x="30" y="360" width="120" height="50" as="geometry" />
        </mxCell>
        <mxCell id="Fblpxnx981H0n67Tq4fb-78" style="edgeStyle=none;rounded=0;orthogonalLoop=1;jettySize=auto;html=1;exitX=1;exitY=0.5;exitDx=0;exitDy=0;entryX=0;entryY=0.5;entryDx=0;entryDy=0;" edge="1" parent="1" source="Fblpxnx981H0n67Tq4fb-65" target="Fblpxnx981H0n67Tq4fb-61">
          <mxGeometry relative="1" as="geometry" />
        </mxCell>
        <mxCell id="Fblpxnx981H0n67Tq4fb-65" value="&lt;font style=&quot;font-size: 14px;&quot;&gt;birthday&lt;/font&gt;" style="ellipse;whiteSpace=wrap;html=1;" vertex="1" parent="1">
          <mxGeometry x="20" y="414" width="120" height="50" as="geometry" />
        </mxCell>
        <mxCell id="Fblpxnx981H0n67Tq4fb-79" style="edgeStyle=none;rounded=0;orthogonalLoop=1;jettySize=auto;html=1;exitX=1;exitY=0.5;exitDx=0;exitDy=0;entryX=0;entryY=1;entryDx=0;entryDy=0;" edge="1" parent="1" source="Fblpxnx981H0n67Tq4fb-67" target="Fblpxnx981H0n67Tq4fb-61">
          <mxGeometry relative="1" as="geometry" />
        </mxCell>
        <mxCell id="Fblpxnx981H0n67Tq4fb-67" value="&lt;font size=&quot;3&quot;&gt;email&lt;/font&gt;" style="ellipse;whiteSpace=wrap;html=1;" vertex="1" parent="1">
          <mxGeometry x="20" y="464" width="120" height="50" as="geometry" />
        </mxCell>
        <mxCell id="Fblpxnx981H0n67Tq4fb-80" style="edgeStyle=none;rounded=0;orthogonalLoop=1;jettySize=auto;html=1;exitX=1;exitY=0.5;exitDx=0;exitDy=0;entryX=0.25;entryY=1;entryDx=0;entryDy=0;" edge="1" parent="1" source="Fblpxnx981H0n67Tq4fb-68" target="Fblpxnx981H0n67Tq4fb-61">
          <mxGeometry relative="1" as="geometry">
            <mxPoint x="270" y="470" as="targetPoint" />
          </mxGeometry>
        </mxCell>
        <mxCell id="Fblpxnx981H0n67Tq4fb-68" value="&lt;font style=&quot;font-size: 14px;&quot;&gt;addres&lt;/font&gt;" style="ellipse;whiteSpace=wrap;html=1;" vertex="1" parent="1">
          <mxGeometry x="40" y="514" width="120" height="50" as="geometry" />
        </mxCell>
        <mxCell id="Fblpxnx981H0n67Tq4fb-81" style="edgeStyle=none;rounded=0;orthogonalLoop=1;jettySize=auto;html=1;exitX=1;exitY=0.5;exitDx=0;exitDy=0;entryX=0.25;entryY=1;entryDx=0;entryDy=0;" edge="1" parent="1" source="Fblpxnx981H0n67Tq4fb-69" target="Fblpxnx981H0n67Tq4fb-61">
          <mxGeometry relative="1" as="geometry">
            <mxPoint x="290" y="470" as="targetPoint" />
          </mxGeometry>
        </mxCell>
        <mxCell id="Fblpxnx981H0n67Tq4fb-69" value="&lt;font style=&quot;font-size: 14px;&quot;&gt;occupation&lt;/font&gt;" style="ellipse;whiteSpace=wrap;html=1;" vertex="1" parent="1">
          <mxGeometry x="70" y="564" width="120" height="50" as="geometry" />
        </mxCell>
        <mxCell id="Fblpxnx981H0n67Tq4fb-82" style="edgeStyle=none;rounded=0;orthogonalLoop=1;jettySize=auto;html=1;exitX=1;exitY=0.5;exitDx=0;exitDy=0;entryX=0.5;entryY=1;entryDx=0;entryDy=0;" edge="1" parent="1" source="Fblpxnx981H0n67Tq4fb-70" target="Fblpxnx981H0n67Tq4fb-61">
          <mxGeometry relative="1" as="geometry">
            <mxPoint x="300" y="470" as="targetPoint" />
          </mxGeometry>
        </mxCell>
        <mxCell id="Fblpxnx981H0n67Tq4fb-70" value="&lt;font style=&quot;font-size: 14px;&quot;&gt;phone&lt;/font&gt;" style="ellipse;whiteSpace=wrap;html=1;" vertex="1" parent="1">
          <mxGeometry x="100" y="614" width="120" height="50" as="geometry" />
        </mxCell>
        <mxCell id="Fblpxnx981H0n67Tq4fb-71" value="&lt;font style=&quot;font-size: 14px;&quot;&gt;date_recruitment&lt;/font&gt;" style="ellipse;whiteSpace=wrap;html=1;" vertex="1" parent="1">
          <mxGeometry x="70" y="260" width="120" height="50" as="geometry" />
        </mxCell>
        <mxCell id="Fblpxnx981H0n67Tq4fb-73" style="rounded=0;orthogonalLoop=1;jettySize=auto;html=1;exitX=1;exitY=0.5;exitDx=0;exitDy=0;entryX=0.353;entryY=0.022;entryDx=0;entryDy=0;entryPerimeter=0;" edge="1" parent="1" source="Fblpxnx981H0n67Tq4fb-71" target="Fblpxnx981H0n67Tq4fb-61">
          <mxGeometry relative="1" as="geometry" />
        </mxCell>
        <mxCell id="Fblpxnx981H0n67Tq4fb-112" style="edgeStyle=none;rounded=0;orthogonalLoop=1;jettySize=auto;html=1;exitX=0;exitY=0.5;exitDx=0;exitDy=0;entryX=1;entryY=1;entryDx=0;entryDy=0;" edge="1" parent="1" source="Fblpxnx981H0n67Tq4fb-83" target="Fblpxnx981H0n67Tq4fb-111">
          <mxGeometry relative="1" as="geometry" />
        </mxCell>
        <mxCell id="Fblpxnx981H0n67Tq4fb-83" value="&lt;font style=&quot;font-size: 18px;&quot;&gt;customers&lt;/font&gt;" style="rounded=0;whiteSpace=wrap;html=1;" vertex="1" parent="1">
          <mxGeometry x="850" y="418" width="120" height="46" as="geometry" />
        </mxCell>
        <mxCell id="Fblpxnx981H0n67Tq4fb-102" style="edgeStyle=none;rounded=0;orthogonalLoop=1;jettySize=auto;html=1;exitX=0;exitY=0.5;exitDx=0;exitDy=0;entryX=1;entryY=0;entryDx=0;entryDy=0;" edge="1" parent="1" source="Fblpxnx981H0n67Tq4fb-85" target="Fblpxnx981H0n67Tq4fb-83">
          <mxGeometry relative="1" as="geometry" />
        </mxCell>
        <mxCell id="Fblpxnx981H0n67Tq4fb-85" value="&lt;u&gt;&lt;font style=&quot;font-size: 14px;&quot;&gt;idcustomers&lt;/font&gt;&lt;/u&gt;" style="ellipse;whiteSpace=wrap;html=1;" vertex="1" parent="1">
          <mxGeometry x="1040" y="300" width="120" height="50" as="geometry" />
        </mxCell>
        <mxCell id="Fblpxnx981H0n67Tq4fb-107" style="edgeStyle=none;rounded=0;orthogonalLoop=1;jettySize=auto;html=1;exitX=0;exitY=0.5;exitDx=0;exitDy=0;entryX=1;entryY=1;entryDx=0;entryDy=0;" edge="1" parent="1" source="Fblpxnx981H0n67Tq4fb-87" target="Fblpxnx981H0n67Tq4fb-83">
          <mxGeometry relative="1" as="geometry" />
        </mxCell>
        <mxCell id="Fblpxnx981H0n67Tq4fb-87" value="&lt;font style=&quot;font-size: 14px;&quot;&gt;name_&lt;/font&gt;" style="ellipse;whiteSpace=wrap;html=1;" vertex="1" parent="1">
          <mxGeometry x="1040" y="550" width="120" height="50" as="geometry" />
        </mxCell>
        <mxCell id="Fblpxnx981H0n67Tq4fb-106" style="edgeStyle=none;rounded=0;orthogonalLoop=1;jettySize=auto;html=1;exitX=0;exitY=0.5;exitDx=0;exitDy=0;entryX=1;entryY=0.75;entryDx=0;entryDy=0;" edge="1" parent="1" source="Fblpxnx981H0n67Tq4fb-89" target="Fblpxnx981H0n67Tq4fb-83">
          <mxGeometry relative="1" as="geometry" />
        </mxCell>
        <mxCell id="Fblpxnx981H0n67Tq4fb-89" value="&lt;font style=&quot;font-size: 14px;&quot;&gt;lastname&lt;/font&gt;" style="ellipse;whiteSpace=wrap;html=1;" vertex="1" parent="1">
          <mxGeometry x="1040" y="500" width="120" height="50" as="geometry" />
        </mxCell>
        <mxCell id="Fblpxnx981H0n67Tq4fb-105" style="edgeStyle=none;rounded=0;orthogonalLoop=1;jettySize=auto;html=1;exitX=0;exitY=0.5;exitDx=0;exitDy=0;entryX=1;entryY=0.5;entryDx=0;entryDy=0;" edge="1" parent="1" source="Fblpxnx981H0n67Tq4fb-91" target="Fblpxnx981H0n67Tq4fb-83">
          <mxGeometry relative="1" as="geometry" />
        </mxCell>
        <mxCell id="Fblpxnx981H0n67Tq4fb-91" value="&lt;font style=&quot;font-size: 14px;&quot;&gt;birthday&lt;/font&gt;" style="ellipse;whiteSpace=wrap;html=1;" vertex="1" parent="1">
          <mxGeometry x="1040" y="450" width="120" height="50" as="geometry" />
        </mxCell>
        <mxCell id="Fblpxnx981H0n67Tq4fb-104" style="edgeStyle=none;rounded=0;orthogonalLoop=1;jettySize=auto;html=1;exitX=0;exitY=0.5;exitDx=0;exitDy=0;entryX=1;entryY=0.25;entryDx=0;entryDy=0;" edge="1" parent="1" source="Fblpxnx981H0n67Tq4fb-93" target="Fblpxnx981H0n67Tq4fb-83">
          <mxGeometry relative="1" as="geometry" />
        </mxCell>
        <mxCell id="Fblpxnx981H0n67Tq4fb-93" value="&lt;font size=&quot;3&quot;&gt;email&lt;/font&gt;" style="ellipse;whiteSpace=wrap;html=1;" vertex="1" parent="1">
          <mxGeometry x="1040" y="400" width="120" height="50" as="geometry" />
        </mxCell>
        <mxCell id="Fblpxnx981H0n67Tq4fb-103" style="edgeStyle=none;rounded=0;orthogonalLoop=1;jettySize=auto;html=1;exitX=0;exitY=0.5;exitDx=0;exitDy=0;" edge="1" parent="1" source="Fblpxnx981H0n67Tq4fb-99">
          <mxGeometry relative="1" as="geometry">
            <mxPoint x="970" y="420" as="targetPoint" />
          </mxGeometry>
        </mxCell>
        <mxCell id="Fblpxnx981H0n67Tq4fb-99" value="&lt;font style=&quot;font-size: 14px;&quot;&gt;phone&lt;/font&gt;" style="ellipse;whiteSpace=wrap;html=1;" vertex="1" parent="1">
          <mxGeometry x="1040" y="350" width="120" height="50" as="geometry" />
        </mxCell>
        <mxCell id="Fblpxnx981H0n67Tq4fb-113" style="edgeStyle=none;rounded=0;orthogonalLoop=1;jettySize=auto;html=1;exitX=1;exitY=0.5;exitDx=0;exitDy=0;entryX=0;entryY=1;entryDx=0;entryDy=0;" edge="1" parent="1" source="Fblpxnx981H0n67Tq4fb-108" target="Fblpxnx981H0n67Tq4fb-111">
          <mxGeometry relative="1" as="geometry" />
        </mxCell>
        <mxCell id="Fblpxnx981H0n67Tq4fb-108" value="&lt;font style=&quot;font-size: 18px;&quot;&gt;reserves&lt;/font&gt;" style="shape=process;whiteSpace=wrap;html=1;backgroundOutline=1;" vertex="1" parent="1">
          <mxGeometry x="550" y="409" width="120" height="60" as="geometry" />
        </mxCell>
        <mxCell id="Fblpxnx981H0n67Tq4fb-110" value="crear" style="rhombus;whiteSpace=wrap;html=1;" vertex="1" parent="1">
          <mxGeometry x="430" y="300" width="80" height="80" as="geometry" />
        </mxCell>
        <mxCell id="Fblpxnx981H0n67Tq4fb-111" value="hacer" style="rhombus;whiteSpace=wrap;html=1;" vertex="1" parent="1">
          <mxGeometry x="720" y="295" width="80" height="80" as="geometry" />
        </mxCell>
        <mxCell id="Fblpxnx981H0n67Tq4fb-114" style="edgeStyle=none;rounded=0;orthogonalLoop=1;jettySize=auto;html=1;exitX=0;exitY=0.5;exitDx=0;exitDy=0;entryX=0.713;entryY=0.875;entryDx=0;entryDy=0;entryPerimeter=0;" edge="1" parent="1" source="Fblpxnx981H0n67Tq4fb-108" target="Fblpxnx981H0n67Tq4fb-110">
          <mxGeometry relative="1" as="geometry" />
        </mxCell>
        <mxCell id="Fblpxnx981H0n67Tq4fb-138" style="edgeStyle=none;rounded=0;orthogonalLoop=1;jettySize=auto;html=1;exitX=1;exitY=0;exitDx=0;exitDy=0;entryX=0.25;entryY=1;entryDx=0;entryDy=0;" edge="1" parent="1" source="Fblpxnx981H0n67Tq4fb-134" target="Fblpxnx981H0n67Tq4fb-108">
          <mxGeometry relative="1" as="geometry" />
        </mxCell>
        <mxCell id="Fblpxnx981H0n67Tq4fb-134" value="&lt;font style=&quot;font-size: 14px;&quot;&gt;price&lt;/font&gt;" style="ellipse;whiteSpace=wrap;html=1;" vertex="1" parent="1">
          <mxGeometry x="420" y="530" width="120" height="50" as="geometry" />
        </mxCell>
        <mxCell id="Fblpxnx981H0n67Tq4fb-139" style="edgeStyle=none;rounded=0;orthogonalLoop=1;jettySize=auto;html=1;exitX=0.5;exitY=0;exitDx=0;exitDy=0;entryX=0.5;entryY=1;entryDx=0;entryDy=0;" edge="1" parent="1" source="Fblpxnx981H0n67Tq4fb-135" target="Fblpxnx981H0n67Tq4fb-108">
          <mxGeometry relative="1" as="geometry" />
        </mxCell>
        <mxCell id="Fblpxnx981H0n67Tq4fb-135" value="&lt;font style=&quot;font-size: 14px;&quot;&gt;time&lt;/font&gt;" style="ellipse;whiteSpace=wrap;html=1;" vertex="1" parent="1">
          <mxGeometry x="570" y="520" width="120" height="50" as="geometry" />
        </mxCell>
        <mxCell id="Fblpxnx981H0n67Tq4fb-140" style="edgeStyle=none;rounded=0;orthogonalLoop=1;jettySize=auto;html=1;exitX=0.5;exitY=0;exitDx=0;exitDy=0;entryX=0;entryY=1;entryDx=0;entryDy=0;" edge="1" parent="1" source="Fblpxnx981H0n67Tq4fb-137" target="Fblpxnx981H0n67Tq4fb-108">
          <mxGeometry relative="1" as="geometry" />
        </mxCell>
        <mxCell id="Fblpxnx981H0n67Tq4fb-137" value="&lt;font style=&quot;font-size: 14px;&quot;&gt;state&lt;/font&gt;" style="ellipse;whiteSpace=wrap;html=1;align=center;dashed=1;" vertex="1" parent="1">
          <mxGeometry x="400" y="490" width="100" height="40" as="geometry" />
        </mxCell>
        <mxCell id="Fblpxnx981H0n67Tq4fb-141" value="&lt;font size=&quot;3&quot;&gt;createAt&lt;/font&gt;" style="ellipse;whiteSpace=wrap;html=1;" vertex="1" parent="1">
          <mxGeometry x="320" y="170" width="120" height="50" as="geometry" />
        </mxCell>
        <mxCell id="Fblpxnx981H0n67Tq4fb-142" style="edgeStyle=none;rounded=0;orthogonalLoop=1;jettySize=auto;html=1;exitX=1;exitY=1;exitDx=0;exitDy=0;entryX=0.363;entryY=0.2;entryDx=0;entryDy=0;entryPerimeter=0;" edge="1" parent="1" source="Fblpxnx981H0n67Tq4fb-141" target="Fblpxnx981H0n67Tq4fb-110">
          <mxGeometry relative="1" as="geometry" />
        </mxCell>
        <mxCell id="Fblpxnx981H0n67Tq4fb-144" style="edgeStyle=none;rounded=0;orthogonalLoop=1;jettySize=auto;html=1;exitX=0.5;exitY=1;exitDx=0;exitDy=0;entryX=1;entryY=0;entryDx=0;entryDy=0;" edge="1" parent="1" source="Fblpxnx981H0n67Tq4fb-143" target="Fblpxnx981H0n67Tq4fb-111">
          <mxGeometry relative="1" as="geometry" />
        </mxCell>
        <mxCell id="Fblpxnx981H0n67Tq4fb-143" value="&lt;font size=&quot;3&quot;&gt;date_reserves&lt;/font&gt;" style="ellipse;whiteSpace=wrap;html=1;" vertex="1" parent="1">
          <mxGeometry x="810" y="170" width="120" height="50" as="geometry" />
        </mxCell>
        <mxCell id="Fblpxnx981H0n67Tq4fb-146" style="edgeStyle=orthogonalEdgeStyle;rounded=0;orthogonalLoop=1;jettySize=auto;html=1;exitX=0;exitY=0.5;exitDx=0;exitDy=0;" edge="1" parent="1" source="Fblpxnx981H0n67Tq4fb-145" target="Fblpxnx981H0n67Tq4fb-61">
          <mxGeometry relative="1" as="geometry" />
        </mxCell>
        <mxCell id="Fblpxnx981H0n67Tq4fb-145" value="payment" style="shape=rhombus;perimeter=rhombusPerimeter;whiteSpace=wrap;html=1;align=center;" vertex="1" parent="1">
          <mxGeometry x="540" y="800" width="120" height="60" as="geometry" />
        </mxCell>
        <mxCell id="Fblpxnx981H0n67Tq4fb-147" style="edgeStyle=orthogonalEdgeStyle;rounded=0;orthogonalLoop=1;jettySize=auto;html=1;exitX=1;exitY=0.5;exitDx=0;exitDy=0;entryX=0.583;entryY=1;entryDx=0;entryDy=0;entryPerimeter=0;" edge="1" parent="1" source="Fblpxnx981H0n67Tq4fb-145" target="Fblpxnx981H0n67Tq4fb-83">
          <mxGeometry relative="1" as="geometry" />
        </mxCell>
        <mxCell id="Fblpxnx981H0n67Tq4fb-149" value="&lt;b&gt;&lt;span style=&quot;font-size:11.0pt;line-height:107%;&lt;br/&gt;font-family:&amp;quot;Calibri&amp;quot;,sans-serif;mso-ascii-theme-font:minor-latin;mso-fareast-font-family:&lt;br/&gt;Calibri;mso-fareast-theme-font:minor-latin;mso-hansi-theme-font:minor-latin;&lt;br/&gt;mso-bidi-theme-font:minor-latin;mso-ansi-language:ES-CO;mso-fareast-language:&lt;br/&gt;EN-US;mso-bidi-language:AR-SA&quot;&gt;reservation_history&lt;/span&gt;&lt;/b&gt;" style="shape=process;whiteSpace=wrap;html=1;backgroundOutline=1;" vertex="1" parent="1">
          <mxGeometry x="710" y="614" width="180" height="60" as="geometry" />
        </mxCell>
        <mxCell id="Fblpxnx981H0n67Tq4fb-152" style="edgeStyle=none;rounded=0;orthogonalLoop=1;jettySize=auto;html=1;exitX=0.25;exitY=1;exitDx=0;exitDy=0;entryX=0.906;entryY=0.067;entryDx=0;entryDy=0;entryPerimeter=0;" edge="1" parent="1" source="Fblpxnx981H0n67Tq4fb-83" target="Fblpxnx981H0n67Tq4fb-149">
          <mxGeometry relative="1" as="geometry" />
        </mxCell>
        <mxCell id="Fblpxnx981H0n67Tq4fb-153" style="edgeStyle=none;rounded=0;orthogonalLoop=1;jettySize=auto;html=1;exitX=1;exitY=1;exitDx=0;exitDy=0;entryX=0.217;entryY=0.017;entryDx=0;entryDy=0;entryPerimeter=0;" edge="1" parent="1" source="Fblpxnx981H0n67Tq4fb-108" target="Fblpxnx981H0n67Tq4fb-149">
          <mxGeometry relative="1" as="geometry" />
        </mxCell>
        <mxCell id="Fblpxnx981H0n67Tq4fb-155" value="&lt;span style=&quot;font-size: 14px;&quot;&gt;&lt;u&gt;idreserves&lt;/u&gt;&lt;/span&gt;" style="ellipse;whiteSpace=wrap;html=1;" vertex="1" parent="1">
          <mxGeometry x="490" y="580" width="120" height="50" as="geometry" />
        </mxCell>
        <mxCell id="Fblpxnx981H0n67Tq4fb-157" style="edgeStyle=none;rounded=0;orthogonalLoop=1;jettySize=auto;html=1;exitX=0.5;exitY=0;exitDx=0;exitDy=0;entryX=0.375;entryY=1;entryDx=0;entryDy=0;entryPerimeter=0;" edge="1" parent="1" source="Fblpxnx981H0n67Tq4fb-155" target="Fblpxnx981H0n67Tq4fb-108">
          <mxGeometry relative="1" as="geometry" />
        </mxCell>
        <mxCell id="Fblpxnx981H0n67Tq4fb-158" value="&lt;font style=&quot;font-size: 14px;&quot;&gt;idreservation_history&lt;/font&gt;" style="ellipse;whiteSpace=wrap;html=1;" vertex="1" parent="1">
          <mxGeometry x="740" y="730" width="150" height="50" as="geometry" />
        </mxCell>
        <mxCell id="Fblpxnx981H0n67Tq4fb-159" value="comment" style="ellipse;whiteSpace=wrap;html=1;" vertex="1" parent="1">
          <mxGeometry x="590" y="700" width="120" height="50" as="geometry" />
        </mxCell>
        <mxCell id="Fblpxnx981H0n67Tq4fb-160" style="edgeStyle=none;rounded=0;orthogonalLoop=1;jettySize=auto;html=1;exitX=1;exitY=0;exitDx=0;exitDy=0;entryX=0.089;entryY=0.967;entryDx=0;entryDy=0;entryPerimeter=0;" edge="1" parent="1" source="Fblpxnx981H0n67Tq4fb-159" target="Fblpxnx981H0n67Tq4fb-149">
          <mxGeometry relative="1" as="geometry" />
        </mxCell>
        <mxCell id="Fblpxnx981H0n67Tq4fb-161" style="edgeStyle=none;rounded=0;orthogonalLoop=1;jettySize=auto;html=1;exitX=0.5;exitY=0;exitDx=0;exitDy=0;entryX=0.556;entryY=1.1;entryDx=0;entryDy=0;entryPerimeter=0;" edge="1" parent="1" source="Fblpxnx981H0n67Tq4fb-158" target="Fblpxnx981H0n67Tq4fb-149">
          <mxGeometry relative="1" as="geometry" />
        </mxCell>
      </root>
    </mxGraphModel>
  </diagram>
</mxfile>
